<svg width="14" height="14" viewBox="0 0 14 14" fill="none" xmlns="http://www.w3.org/2000/svg">
<path fill-rule="evenodd" clip-rule="evenodd" d="M6.99996 11.6666C8.23764 11.6666 9.42462 11.175 10.2998 10.2998C11.175 9.42462 11.6666 8.23764 11.6666 6.99996C11.6666 5.76228 11.175 4.5753 10.2998 3.70013C9.42462 2.82496 8.23764 2.33329 6.99996 2.33329C5.76228 2.33329 4.5753 2.82496 3.70013 3.70013C2.82496 4.5753 2.33329 5.76228 2.33329 6.99996C2.33329 8.23764 2.82496 9.42462 3.70013 10.2998C4.5753 11.175 5.76228 11.6666 6.99996 11.6666ZM6.99996 12.8333C10.2217 12.8333 12.8333 10.2217 12.8333 6.99996C12.8333 3.77821 10.2217 1.16663 6.99996 1.16663C3.77821 1.16663 1.16663 3.77821 1.16663 6.99996C1.16663 10.2217 3.77821 12.8333 6.99996 12.8333Z" fill="black"/>
</svg>
